<svg xmlns="http://www.w3.org/2000/svg" width="400" height="300" viewBox="0 0 400 300"><defs><clipPath id="cc"><rect width="400" height="300" rx="24"/></clipPath><linearGradient id="bg" x1="0" y1="0" x2="0" y2="1"><stop offset="0" stop-color="#2A2370"/><stop offset="1" stop-color="#0E1236"/></linearGradient><radialGradient id="pl" cx="0.35" cy="0.3" r="0.8"><stop offset="0" stop-color="#FF9BC7"/><stop offset="1" stop-color="#B23A8A"/></radialGradient><radialGradient id="moon" cx="0.35" cy="0.3" r="0.8"><stop offset="0" stop-color="#F2F4FF"/><stop offset="1" stop-color="#BAC4E6"/></radialGradient><linearGradient id="tail" x1="0" y1="0" x2="1" y2="0"><stop offset="0" stop-color="rgba(255,255,255,0)"/><stop offset="1" stop-color="#fff"/></linearGradient></defs><rect width="400" height="300" rx="24" fill="url(#bg)"/><g clip-path="url(#cc)"><circle cx="0" cy="0" r="1" fill="#fff" opacity="0.45"/><circle cx="97" cy="84" r="1.7" fill="#fff" opacity="0.5900000000000001"/><circle cx="194" cy="168" r="2.4" fill="#fff" opacity="0.73"/><circle cx="291" cy="252" r="1" fill="#fff" opacity="0.8700000000000001"/><circle cx="388" cy="36" r="1.7" fill="#fff" opacity="0.45"/><circle cx="85" cy="120" r="2.4" fill="#fff" opacity="0.5900000000000001"/><circle cx="182" cy="204" r="1" fill="#fff" opacity="0.73"/><circle cx="279" cy="127" r="1.7" fill="#fff" opacity="0.8700000000000001"/><circle cx="376" cy="211" r="2.4" fill="#fff" opacity="0.45"/><circle cx="73" cy="295" r="1" fill="#fff" opacity="0.5900000000000001"/><circle cx="170" cy="79" r="1.7" fill="#fff" opacity="0.73"/><circle cx="267" cy="163" r="2.4" fill="#fff" opacity="0.8700000000000001"/><circle cx="364" cy="247" r="1" fill="#fff" opacity="0.45"/><circle cx="61" cy="31" r="1.7" fill="#fff" opacity="0.5900000000000001"/><circle cx="158" cy="254" r="2.4" fill="#fff" opacity="0.73"/><circle cx="255" cy="38" r="1" fill="#fff" opacity="0.8700000000000001"/><circle cx="352" cy="122" r="1.7" fill="#fff" opacity="0.45"/><circle cx="49" cy="206" r="2.4" fill="#fff" opacity="0.5900000000000001"/><circle cx="146" cy="290" r="1" fill="#fff" opacity="0.73"/><circle cx="243" cy="74" r="1.7" fill="#fff" opacity="0.8700000000000001"/><circle cx="340" cy="158" r="2.4" fill="#fff" opacity="0.45"/><circle cx="37" cy="81" r="1" fill="#fff" opacity="0.5900000000000001"/><circle cx="134" cy="165" r="1.7" fill="#fff" opacity="0.73"/><circle cx="231" cy="249" r="2.4" fill="#fff" opacity="0.8700000000000001"/><circle cx="328" cy="33" r="1" fill="#fff" opacity="0.45"/><circle cx="25" cy="117" r="1.7" fill="#fff" opacity="0.5900000000000001"/><circle cx="122" cy="201" r="2.4" fill="#fff" opacity="0.73"/><circle cx="219" cy="285" r="1" fill="#fff" opacity="0.8700000000000001"/><circle cx="316" cy="208" r="1.7" fill="#fff" opacity="0.45"/><circle cx="13" cy="292" r="2.4" fill="#fff" opacity="0.5900000000000001"/><circle cx="110" cy="76" r="1" fill="#fff" opacity="0.73"/><circle cx="207" cy="160" r="1.7" fill="#fff" opacity="0.8700000000000001"/><circle cx="304" cy="244" r="2.4" fill="#fff" opacity="0.45"/><circle cx="1" cy="28" r="1" fill="#fff" opacity="0.5900000000000001"/><circle cx="98" cy="112" r="1.7" fill="#fff" opacity="0.73"/><circle cx="195" cy="35" r="2.4" fill="#fff" opacity="0.8700000000000001"/><circle cx="292" cy="119" r="1" fill="#fff" opacity="0.45"/><circle cx="389" cy="203" r="1.7" fill="#fff" opacity="0.5900000000000001"/><circle cx="86" cy="287" r="2.4" fill="#fff" opacity="0.73"/><circle cx="183" cy="71" r="1" fill="#fff" opacity="0.8700000000000001"/><circle cx="280" cy="155" r="1.7" fill="#fff" opacity="0.45"/><circle cx="377" cy="239" r="2.4" fill="#fff" opacity="0.5900000000000001"/><circle cx="74" cy="162" r="1" fill="#fff" opacity="0.73"/><circle cx="171" cy="246" r="1.7" fill="#fff" opacity="0.8700000000000001"/><circle cx="268" cy="30" r="2.4" fill="#fff" opacity="0.45"/><circle cx="365" cy="114" r="1" fill="#fff" opacity="0.5900000000000001"/>
  <path transform="translate(70 60) scale(1.1)" d="M0 -10 Q2 -2 10 0 Q2 2 0 10 Q-2 2 -10 0 Q-2 -2 0 -10Z" fill="#fff" opacity="0.9"/><path transform="translate(340 240) scale(0.9)" d="M0 -10 Q2 -2 10 0 Q2 2 0 10 Q-2 2 -10 0 Q-2 -2 0 -10Z" fill="#fff" opacity="0.9"/><path transform="translate(300 40) scale(0.7)" d="M0 -10 Q2 -2 10 0 Q2 2 0 10 Q-2 2 -10 0 Q-2 -2 0 -10Z" fill="#fff" opacity="0.9"/>
  <path d="M40 210 L130 150" stroke="url(#tail)" stroke-width="7" stroke-linecap="round"/><circle cx="130" cy="150" r="7" fill="#fff"/>
  <circle cx="90" cy="250" r="64" fill="url(#moon)"/><circle cx="66" cy="230" r="10" fill="#9AA5C7" opacity=".6"/><circle cx="112" cy="264" r="14" fill="#9AA5C7" opacity=".5"/><circle cx="96" cy="214" r="6" fill="#9AA5C7" opacity=".6"/></g>
  <ellipse cx="262" cy="132" rx="104" ry="26" fill="none" stroke="#FFD58A" stroke-width="10" transform="rotate(-16 262 132)" opacity=".9"/>
  <circle cx="262" cy="132" r="62" fill="url(#pl)"/><path d="M206 120 Q262 104 318 124 M210 146 Q262 132 316 150" stroke="#fff" stroke-width="6" fill="none" opacity=".25"/>
  <path d="M158 132 A104 26 0 0 0 366 132" fill="none" stroke="#FFD58A" stroke-width="10" transform="rotate(-16 262 132)"/>
  <circle cx="240" cy="104" r="14" fill="#fff" opacity=".25"/></svg>
