<svg viewBox="0 0 110 100" xmlns="http://www.w3.org/2000/svg"><defs><linearGradient id="wGo" x1="0" y1="0" x2="0" y2="1"><stop offset="0" stop-color="#E9C48F"/><stop offset="1" stop-color="#B9874E"/></linearGradient></defs><path d="M84 66 Q104 52 98 36" fill="none" stroke="#9A6A36" stroke-width="8" stroke-linecap="round"/><ellipse cx="62" cy="68" rx="30" ry="20" fill="url(#wGo)" stroke="#7A4E22" stroke-width="2.6"/><path d="M44 84v12M56 86v12M70 86v12M82 84v12" stroke="#7A4E22" stroke-width="6" stroke-linecap="round"/><circle cx="34" cy="44" r="24" fill="url(#wGo)" stroke="#7A4E22" stroke-width="2.6"/><path d="M14 30 Q4 52 16 62 Q22 46 22 34Z M54 30 Q64 52 52 62 Q46 46 46 34Z" fill="#8A5A2E" stroke="#5E3A18" stroke-width="2"/><circle cx="26" cy="42" r="5" fill="#fff"/><circle cx="27.5" cy="42" r="2.75" fill="#1B1D2E"/><circle cx="28.25" cy="40.5" r="1" fill="#fff"/><circle cx="42" cy="42" r="5" fill="#fff"/><circle cx="43.5" cy="42" r="2.75" fill="#1B1D2E"/><circle cx="44.25" cy="40.5" r="1" fill="#fff"/><ellipse cx="34" cy="54" rx="7" ry="5" fill="#2A1A0E"/><path d="M34 58 v4 M28 62 q6 5 12 0" stroke="#5E3A18" stroke-width="2" fill="none" stroke-linecap="round"/><path d="M34 63 q2 8 6 4" fill="#E5489A"/></svg>