<svg xmlns="http://www.w3.org/2000/svg" width="400" height="300" viewBox="0 0 400 300"><defs><clipPath id="cc"><rect width="400" height="300" rx="24"/></clipPath><linearGradient id="bg" x1="0" y1="0" x2="0" y2="1"><stop offset="0" stop-color="#FFF0F6"/><stop offset="1" stop-color="#FFD1E4"/></linearGradient><linearGradient id="cake" x1="0" y1="0" x2="0" y2="1"><stop offset="0" stop-color="#F7C98A"/><stop offset="1" stop-color="#E09A55"/></linearGradient><linearGradient id="cream" x1="0" y1="0" x2="0" y2="1"><stop offset="0" stop-color="#FFFFFF"/><stop offset="1" stop-color="#FFD9EA"/></linearGradient><linearGradient id="flame" x1="0" y1="0" x2="0" y2="1"><stop offset="0" stop-color="#FFF3A0"/><stop offset="1" stop-color="#FF8A2A"/></linearGradient></defs><rect width="400" height="300" rx="24" fill="url(#bg)"/><g clip-path="url(#cc)"><circle cx="64" cy="70" r="24" fill="#fff" opacity=".35"/><circle cx="346" cy="64" r="18" fill="#fff" opacity=".35"/><rect x="40" y="30" width="10" height="16" rx="3" fill="#FF8FB8" transform="rotate(-30 45 38)"/><rect x="132" y="46" width="10" height="16" rx="3" fill="#FFC531" transform="rotate(0 137 38)"/><rect x="224" y="30" width="10" height="16" rx="3" fill="#6FB6FF" transform="rotate(30 229 38)"/><rect x="316" y="46" width="10" height="16" rx="3" fill="#7EE08A" transform="rotate(60 321 38)"/></g><g clip-path="url(#cc)"><path d="M0 222 H400 V300 H0Z" fill="#E7B98A"/><path d="M0 222 H400" stroke="#C99064" stroke-width="5"/><path d="M40 236 q30 6 60 0" stroke="#D4A272" stroke-width="3" fill="none" opacity=".6"/><path d="M120 236 q30 6 60 0" stroke="#D4A272" stroke-width="3" fill="none" opacity=".6"/><path d="M200 236 q30 6 60 0" stroke="#D4A272" stroke-width="3" fill="none" opacity=".6"/><path d="M280 236 q30 6 60 0" stroke="#D4A272" stroke-width="3" fill="none" opacity=".6"/><path d="M360 236 q30 6 60 0" stroke="#D4A272" stroke-width="3" fill="none" opacity=".6"/></g>
  <ellipse cx="200" cy="248" rx="120" ry="15.600000000000001" fill="#1B1D2E" opacity="0.2"/><ellipse cx="200" cy="238" rx="132" ry="16" fill="#fff" stroke="#D9DEEC" stroke-width="4"/>
  <path d="M96 168 V226 Q200 252 304 226 V168Z" fill="url(#cake)" stroke="#B4642A" stroke-width="5"/>
  <path d="M96 168 Q200 194 304 168 V188 Q284 204 270 190 Q252 210 236 194 Q218 212 200 196 Q182 212 164 194 Q148 210 130 190 Q116 204 96 188Z" fill="url(#cream)" stroke="#E07AA8" stroke-width="4" stroke-linejoin="round"/>
  <ellipse cx="200" cy="168" rx="104" ry="20" fill="#FFF0F6" stroke="#E07AA8" stroke-width="4"/>
  <rect x="144" y="112" width="12" height="52" rx="5" fill="#6FB6FF" stroke="#3A4670" stroke-width="2.5"/><path d="M144 124 l12 -6 M144 140 l12 -6" stroke="#fff" stroke-width="3" opacity=".7"/><path d="M150 108 q-10 -14 0 -28 q10 14 0 28Z" fill="url(#flame)"/><rect x="194" y="112" width="12" height="52" rx="5" fill="#FFC531" stroke="#3A4670" stroke-width="2.5"/><path d="M194 124 l12 -6 M194 140 l12 -6" stroke="#fff" stroke-width="3" opacity=".7"/><path d="M200 108 q-10 -14 0 -28 q10 14 0 28Z" fill="url(#flame)"/><rect x="244" y="112" width="12" height="52" rx="5" fill="#7EE08A" stroke="#3A4670" stroke-width="2.5"/><path d="M244 124 l12 -6 M244 140 l12 -6" stroke="#fff" stroke-width="3" opacity=".7"/><path d="M250 108 q-10 -14 0 -28 q10 14 0 28Z" fill="url(#flame)"/>
  <circle cx="124" cy="176" r="7" fill="#E5484D"/><circle cx="170" cy="180" r="7" fill="#E5484D"/><circle cx="230" cy="176" r="7" fill="#E5484D"/><circle cx="276" cy="180" r="7" fill="#E5484D"/></svg>
