<svg xmlns="http://www.w3.org/2000/svg" width="400" height="300" viewBox="0 0 400 300"><defs><clipPath id="cc"><rect width="400" height="300" rx="24"/></clipPath><linearGradient id="bg" x1="0" y1="0" x2="0" y2="1"><stop offset="0" stop-color="#FFF4E6"/><stop offset="1" stop-color="#FFDDB8"/></linearGradient><linearGradient id="bowl" x1="0" y1="0" x2="0" y2="1"><stop offset="0" stop-color="#FF8A9E"/><stop offset="1" stop-color="#E5484D"/></linearGradient><linearGradient id="soup" x1="0" y1="0" x2="0" y2="1"><stop offset="0" stop-color="#FFB45C"/><stop offset="1" stop-color="#F08A24"/></linearGradient></defs><rect width="400" height="300" rx="24" fill="url(#bg)"/><g clip-path="url(#cc)"><circle cx="66" cy="70" r="22" fill="#fff" opacity=".35"/><circle cx="340" cy="60" r="16" fill="#fff" opacity=".35"/></g><g clip-path="url(#cc)"><path d="M0 222 H400 V300 H0Z" fill="#E7B98A"/><path d="M0 222 H400" stroke="#C99064" stroke-width="5"/><path d="M40 236 q30 6 60 0" stroke="#D4A272" stroke-width="3" fill="none" opacity=".6"/><path d="M120 236 q30 6 60 0" stroke="#D4A272" stroke-width="3" fill="none" opacity=".6"/><path d="M200 236 q30 6 60 0" stroke="#D4A272" stroke-width="3" fill="none" opacity=".6"/><path d="M280 236 q30 6 60 0" stroke="#D4A272" stroke-width="3" fill="none" opacity=".6"/><path d="M360 236 q30 6 60 0" stroke="#D4A272" stroke-width="3" fill="none" opacity=".6"/></g>
  <path d="M150 110 q-16 -20 0 -40 q16 -20 0 -40" stroke="#fff" stroke-width="8" fill="none" stroke-linecap="round" opacity=".75"/><path d="M200 102 q-16 -20 0 -40 q16 -20 0 -40" stroke="#fff" stroke-width="8" fill="none" stroke-linecap="round" opacity=".75"/><path d="M250 110 q-16 -20 0 -40 q16 -20 0 -40" stroke="#fff" stroke-width="8" fill="none" stroke-linecap="round" opacity=".75"/>
  <ellipse cx="200" cy="252" rx="120" ry="15.600000000000001" fill="#1B1D2E" opacity="0.22"/>
  <ellipse cx="200" cy="246" rx="62" ry="10" fill="#C2405E"/>
  <path d="M80 150 Q84 240 200 244 Q316 240 320 150Z" fill="url(#bowl)" stroke="#A82A40" stroke-width="5" stroke-linejoin="round"/>
  <path d="M100 196 Q200 226 300 196" stroke="#fff" stroke-width="8" fill="none" opacity=".5" stroke-dasharray="2 18" stroke-linecap="round"/>
  <ellipse cx="200" cy="150" rx="120" ry="24" fill="#FFF0F2" stroke="#A82A40" stroke-width="5"/>
  <ellipse cx="200" cy="152" rx="104" ry="17" fill="url(#soup)"/>
  <circle cx="160" cy="150" r="7" fill="#7EE08A"/><circle cx="214" cy="146" r="6" fill="#FFC531"/><circle cx="240" cy="156" r="7" fill="#FF8A3D"/><circle cx="186" cy="158" r="5" fill="#7EE08A"/>
  <path d="M268 156 L338 86" stroke="#B9C3E0" stroke-width="10" stroke-linecap="round"/><ellipse cx="262" cy="160" rx="16" ry="9" fill="#D9DEEC" transform="rotate(-45 262 160)"/></svg>
