<svg xmlns="http://www.w3.org/2000/svg" width="400" height="300" viewBox="0 0 400 300">
<defs>
<linearGradient id="bg" x1="0" y1="0" x2="0" y2="1"><stop offset="0" stop-color="#D4F2FF"/><stop offset="1" stop-color="#A9E2F5"/></linearGradient>
<linearGradient id="gr" x1="0" y1="0" x2="0" y2="1"><stop offset="0" stop-color="#7DD87F"/><stop offset="1" stop-color="#3FB25A"/></linearGradient>
<linearGradient id="sh" x1="0" y1="0" x2="0" y2="1"><stop offset="0" stop-color="#2FBF71"/><stop offset="1" stop-color="#14874A"/></linearGradient>
<linearGradient id="sk" x1="0" y1="0" x2="0" y2="1"><stop offset="0" stop-color="#C8EB7A"/><stop offset="1" stop-color="#9BCB4A"/></linearGradient>
<clipPath id="c"><path d="M110 200c0-60 42-98 92-98s92 38 92 98z"/></clipPath>
</defs>
<rect width="400" height="300" rx="24" fill="url(#bg)"/>
<circle cx="330" cy="62" r="26" fill="#F2B21B"/>
<circle cx="330" cy="62" r="38" fill="#F2B21B" opacity=".25"/>
<path d="M40 70q14-14 30-4 14-12 28 2 14 0 14 10H40z" fill="#fff" opacity=".85"/>
<path d="M190 52q10-10 22-3 12-8 22 2 10 0 10 8h-54z" fill="#fff" opacity=".7"/>
<path d="M0 214q100-28 200-6t200-6v74a24 24 0 0 1-24 24H24A24 24 0 0 1 0 276z" fill="url(#gr)"/>
<path d="M40 232l4-12 4 12M60 250l4-12 4 12M330 240l4-12 4 12M350 222l4-12 4 12" stroke="#2E9A4A" stroke-width="3" fill="none" stroke-linecap="round"/>
<ellipse cx="205" cy="244" rx="120" ry="12" fill="#1F6E35" opacity=".3"/>
<path d="M130 196q-6 34 4 42h26q6-4 0-42zM238 196q-6 34 4 42h26q6-4 0-42z" fill="url(#sk)"/><path d="M138 238v-6M146 238v-6M154 238v-6M246 238v-6M254 238v-6M262 238v-6" stroke="#7FAF3A" stroke-width="2.5" stroke-linecap="round"/>
<path d="M112 192q-22 2-28 12 14 4 32-4z" fill="url(#sk)"/>
<path d="M276 186c10-30 34-40 54-34 18 6 22 26 10 38-10 10-30 12-50 8z" fill="url(#sk)"/>
<circle cx="322" cy="170" r="7" fill="#1B2B6B"/>
<circle cx="324.5" cy="167.5" r="2.5" fill="#fff"/>
<path d="M326 186q8 4 16-2" stroke="#4E7A1E" stroke-width="3" fill="none" stroke-linecap="round"/>
<ellipse cx="314" cy="182" rx="6" ry="4" fill="#E5489A" opacity=".35"/>

<path d="M110 200c0-60 42-98 92-98s92 38 92 98z" fill="url(#sh)"/>
<g clip-path="url(#c)" fill="none" stroke="#0E6B39" stroke-width="5" stroke-linejoin="round">
<path d="M178 150l24-14 24 14v28l-24 14-24-14z" fill="#3FD08A" fill-opacity=".45"/>
<path d="M178 150l-26-14-28 14M226 150l26-14 28 14M178 178l-26 12-30-6M226 178l26 12 30-6M202 136v-40M152 136l-8-30M252 136l8-30M202 192v20M152 190l-6 20M252 190l6 20"/>
</g>
<path d="M112 196q90 26 180 0" stroke="#E9C46A" stroke-width="10" fill="none" stroke-linecap="round"/>
<path d="M140 128q20-20 50-24" stroke="#fff" stroke-width="7" stroke-linecap="round" opacity=".35" fill="none"/>
</svg>
