<svg xmlns="http://www.w3.org/2000/svg" width="400" height="300" viewBox="0 0 400 300"><defs><clipPath id="cc"><rect width="400" height="300" rx="24"/></clipPath><linearGradient id="bg" x1="0" y1="0" x2="0" y2="1"><stop offset="0" stop-color="#DFF8EC"/><stop offset="1" stop-color="#A9E4C9"/></linearGradient><linearGradient id="sand" x1="0" y1="0" x2="0" y2="1"><stop offset="0" stop-color="#FBE6B8"/><stop offset="1" stop-color="#EFCB86"/></linearGradient><radialGradient id="shell" cx="0.4" cy="0.25" r="0.9"><stop offset="0" stop-color="#A6E07A"/><stop offset="1" stop-color="#3F8F3A"/></radialGradient><linearGradient id="skin" x1="0" y1="0" x2="0" y2="1"><stop offset="0" stop-color="#C9EE9C"/><stop offset="1" stop-color="#8FCB64"/></linearGradient><linearGradient id="rim" x1="0" y1="0" x2="0" y2="1"><stop offset="0" stop-color="#F2CF7C"/><stop offset="1" stop-color="#C99A3C"/></linearGradient></defs><rect width="400" height="300" rx="24" fill="url(#bg)"/><g clip-path="url(#cc)"><circle cx="70" cy="70" r="26" fill="#fff" opacity=".35"/><circle cx="330" cy="54" r="16" fill="#fff" opacity=".35"/><circle cx="356" cy="96" r="9" fill="#fff" opacity=".35"/>
  <path d="M0 236 Q200 214 400 236 V300 H0Z" fill="url(#sand)"/><circle cx="60" cy="262" r="5" fill="#E9C98B"/><circle cx="330" cy="270" r="6" fill="#E9C98B"/><circle cx="300" cy="250" r="3" fill="#E9C98B"/></g>
  <ellipse cx="196" cy="250" rx="122" ry="15.860000000000001" fill="#1B1D2E" opacity="0.16"/>
  <path d="M110 214 l-18 30 M160 222 l-8 30 M236 222 l8 30 M282 214 l18 30" stroke="#5FAE4E" stroke-width="22" stroke-linecap="round"/>
  <path d="M110 214 l-18 30 M160 222 l-8 30 M236 222 l8 30 M282 214 l18 30" stroke="#7FCB62" stroke-width="12" stroke-linecap="round"/>
  <path d="M286 176 Q330 150 352 164 Q376 180 360 204 Q342 222 300 210Z" fill="url(#skin)" stroke="#3E7A2A" stroke-width="4" stroke-linejoin="round"/>
  <circle cx="340" cy="178" r="10" fill="#fff"/><circle cx="343" cy="178.5" r="6" fill="#1B1D2E"/><circle cx="345" cy="175.5" r="2.2" fill="#fff"/><path d="M346 198 q8 4 14 -2" stroke="#2E5A1E" stroke-width="3.5" fill="none" stroke-linecap="round"/><ellipse cx="330" cy="196" rx="8" ry="4.8" fill="#FF6FA8" opacity=".35"/>
  <path d="M84 214 Q86 92 196 86 Q306 92 308 214Z" fill="url(#shell)" stroke="#2E6A2A" stroke-width="5" stroke-linejoin="round"/>
  <g fill="none" stroke="#2E6A2A" stroke-width="4" stroke-linejoin="round" opacity=".85"><path d="M152 108 L170 146 L222 146 L240 108"/><path d="M170 146 L156 212 M222 146 L236 212"/><path d="M104 168 L156 160 L170 146 M288 168 L236 160 L222 146"/><path d="M156 160 L196 178 L236 160 M196 178 V212"/></g>
  <path d="M120 120 Q150 96 190 96" stroke="#fff" stroke-width="8" stroke-linecap="round" fill="none" opacity=".35"/>
  <rect x="76" y="204" width="240" height="20" rx="10" fill="url(#rim)" stroke="#8A6420" stroke-width="4"/></svg>
